<svg xmlns="http://www.w3.org/2000/svg" xmlns:xlink="http://www.w3.org/1999/xlink" width="500" zoomAndPan="magnify" viewBox="0 0 375 187.499995" height="250" preserveAspectRatio="xMidYMid meet" version="1.0"><defs><g/><clipPath id="cd4ef69267"><path d="M 10.601562 29.730469 L 133.46875 29.730469 L 133.46875 153.550781 L 10.601562 153.550781 Z M 10.601562 29.730469 " clip-rule="nonzero"/></clipPath><clipPath id="440b8d78d6"><path d="M 79 131 L 374.5 131 L 374.5 177 L 79 177 Z M 79 131 " clip-rule="nonzero"/></clipPath></defs><g clip-path="url(#cd4ef69267)"><path fill="#ff3131" d="M 42.164062 43.246094 C 46.546875 35.226562 55.160156 29.730469 64.964844 29.730469 L 106.332031 29.730469 C 106.65625 29.730469 106.949219 29.902344 107.109375 30.183594 C 107.269531 30.460938 107.269531 30.804688 107.105469 31.082031 C 105.964844 33.027344 105.292969 35.378906 105.292969 37.796875 L 105.292969 78.449219 C 105.292969 78.765625 105.128906 79.058594 104.859375 79.21875 C 104.585938 79.382812 104.253906 79.390625 103.972656 79.242188 L 95.800781 74.867188 L 95.785156 74.859375 C 94.9375 74.382812 93.921875 74.425781 93.105469 74.914062 L 83.433594 80.933594 C 83.132812 81.117188 82.75 81.113281 82.457031 80.914062 L 73.671875 74.984375 C 73.132812 74.691406 72.644531 74.542969 72.132812 74.542969 C 71.621094 74.542969 71.132812 74.691406 70.59375 74.984375 L 61.808594 80.914062 C 61.515625 81.113281 61.132812 81.117188 60.832031 80.929688 L 51.65625 75.195312 C 51.273438 74.957031 51.128906 74.476562 51.3125 74.066406 C 52.621094 71.175781 53.3125 67.933594 53.3125 64.542969 C 53.3125 56.175781 49.027344 48.710938 42.460938 44.425781 C 42.070312 44.171875 41.941406 43.65625 42.164062 43.246094 Z M 72.132812 35.109375 C 70.621094 35.109375 69.445312 36.285156 69.445312 37.796875 C 69.445312 38.292969 69.042969 38.695312 68.546875 38.695312 L 66.757812 38.695312 C 62.304688 38.695312 58.691406 42.308594 58.691406 46.761719 C 58.691406 51.210938 62.304688 54.824219 66.757812 54.824219 L 68.546875 54.824219 C 69.042969 54.824219 69.445312 55.226562 69.445312 55.722656 L 69.445312 59.308594 C 69.445312 59.800781 69.042969 60.203125 68.546875 60.203125 L 61.378906 60.203125 C 59.867188 60.203125 58.691406 61.378906 58.691406 62.890625 C 58.691406 64.40625 59.867188 65.582031 61.378906 65.582031 L 68.546875 65.582031 C 69.042969 65.582031 69.445312 65.980469 69.445312 66.476562 C 69.445312 67.988281 70.621094 69.164062 72.132812 69.164062 C 73.644531 69.164062 74.820312 67.988281 74.820312 66.476562 C 74.820312 65.980469 75.222656 65.582031 75.71875 65.582031 L 77.511719 65.582031 C 81.960938 65.582031 85.578125 61.96875 85.578125 57.515625 C 85.578125 53.0625 81.960938 49.449219 77.511719 49.449219 L 75.71875 49.449219 C 75.222656 49.449219 74.820312 49.046875 74.820312 48.550781 L 74.820312 44.96875 C 74.820312 44.472656 75.222656 44.070312 75.71875 44.070312 L 82.886719 44.070312 C 84.402344 44.070312 85.578125 42.894531 85.578125 41.382812 C 85.578125 39.871094 84.402344 38.695312 82.886719 38.695312 L 75.71875 38.695312 C 75.222656 38.695312 74.820312 38.292969 74.820312 37.796875 C 74.820312 36.285156 73.644531 35.109375 72.132812 35.109375 Z M 49.199219 94.933594 C 49.480469 94.785156 49.816406 94.796875 50.085938 94.960938 L 60.023438 101.007812 C 60.824219 101.558594 61.933594 101.554688 62.910156 100.988281 L 71.632812 95.125 C 71.933594 94.921875 72.332031 94.921875 72.632812 95.125 L 81.367188 100.996094 C 82.242188 101.539062 83.367188 101.578125 84.265625 100.996094 L 84.285156 100.984375 L 94.179688 94.960938 C 94.449219 94.796875 94.789062 94.785156 95.066406 94.9375 L 100.300781 97.734375 C 100.574219 97.878906 100.75 98.148438 100.773438 98.453125 C 100.796875 98.761719 100.664062 99.054688 100.417969 99.238281 C 94.617188 103.589844 90.953125 110.496094 90.953125 118.3125 C 90.953125 126.742188 95.308594 134.207031 101.945312 138.496094 C 102.335938 138.746094 102.46875 139.257812 102.246094 139.671875 C 97.867188 147.839844 89.179688 153.40625 79.304688 153.40625 L 72.132812 153.40625 C 61.742188 153.40625 53.3125 144.976562 53.3125 134.585938 L 53.3125 120.246094 C 53.3125 118.734375 52.136719 117.558594 50.625 117.558594 L 39.867188 117.558594 C 39.375 117.558594 38.972656 117.15625 38.972656 116.664062 L 38.972656 100.890625 C 38.972656 100.558594 39.15625 100.253906 39.449219 100.097656 Z M 72.132812 106.804688 C 70.621094 106.804688 69.445312 107.980469 69.445312 109.492188 C 69.445312 109.988281 69.042969 110.390625 68.546875 110.390625 L 66.753906 110.390625 C 62.304688 110.390625 58.6875 114.003906 58.6875 118.453125 C 58.6875 122.90625 62.304688 126.519531 66.753906 126.519531 L 68.546875 126.519531 C 69.042969 126.519531 69.445312 126.921875 69.445312 127.417969 L 69.445312 131.003906 C 69.445312 131.496094 69.042969 131.898438 68.546875 131.898438 L 61.378906 131.898438 C 59.863281 131.898438 58.6875 133.074219 58.6875 134.585938 C 58.6875 136.097656 59.863281 137.277344 61.378906 137.277344 L 68.546875 137.277344 C 69.042969 137.277344 69.445312 137.675781 69.445312 138.171875 C 69.445312 139.683594 70.621094 140.859375 72.132812 140.859375 C 73.644531 140.859375 74.820312 139.683594 74.820312 138.171875 C 74.820312 137.675781 75.222656 137.277344 75.71875 137.277344 L 77.511719 137.277344 C 81.960938 137.277344 85.574219 133.664062 85.574219 129.210938 C 85.574219 124.757812 81.960938 121.144531 77.511719 121.144531 L 75.71875 121.144531 C 75.222656 121.144531 74.820312 120.742188 74.820312 120.246094 L 74.820312 116.664062 C 74.820312 116.167969 75.222656 115.765625 75.71875 115.765625 L 82.886719 115.765625 C 84.398438 115.765625 85.574219 114.589844 85.574219 113.078125 C 85.574219 111.566406 84.398438 110.390625 82.886719 110.390625 L 75.71875 110.390625 C 75.222656 110.390625 74.820312 109.988281 74.820312 109.492188 C 74.820312 107.980469 73.644531 106.804688 72.132812 106.804688 Z M 54.566406 153.375 L 36.285156 153.375 C 25.886719 153.375 17.5 144.914062 17.5 134.589844 L 17.5 123.835938 C 17.5 123.332031 17.929688 122.972656 18.359375 122.972656 L 47.039062 122.972656 C 47.539062 122.972656 47.898438 123.402344 47.898438 123.835938 L 47.898438 134.589844 C 47.898438 141.113281 50.480469 147.28125 55.140625 151.867188 C 55.425781 152.15625 55.5 152.511719 55.355469 152.871094 C 55.210938 153.230469 54.925781 153.445312 54.496094 153.445312 Z M 115.078125 137.105469 C 113.429688 137.105469 111.78125 136.890625 110.203125 136.460938 C 107.621094 135.816406 105.257812 134.597656 103.320312 133.019531 L 103.035156 132.804688 C 103.035156 132.804688 102.675781 132.519531 102.53125 132.230469 C 102.246094 131.800781 102.390625 131.300781 102.746094 131.011719 C 102.847656 130.960938 102.914062 130.878906 102.96875 130.804688 C 102.992188 130.773438 103.011719 130.746094 103.035156 130.726562 C 103.175781 130.582031 103.320312 130.4375 103.535156 130.367188 C 105.757812 128.574219 108.410156 127.355469 111.351562 126.855469 C 112.5 126.566406 113.789062 126.421875 115.078125 126.421875 C 119.667969 126.421875 124.113281 128.074219 127.484375 131.082031 C 127.699219 131.226562 127.769531 131.515625 127.769531 131.730469 C 127.769531 131.945312 127.625 132.230469 127.484375 132.375 C 124.042969 135.457031 119.597656 137.105469 115.078125 137.105469 Z M 77.511719 131.871094 L 75.71875 131.871094 C 75.214844 131.871094 74.855469 131.441406 74.855469 131.011719 L 74.855469 127.425781 C 74.855469 126.921875 75.289062 126.5625 75.71875 126.5625 L 77.511719 126.5625 C 79.015625 126.5625 80.234375 127.710938 80.234375 129.289062 C 80.234375 130.867188 79.015625 132.015625 77.511719 132.015625 Z M 68.476562 121.113281 L 66.683594 121.113281 C 65.179688 121.113281 63.957031 119.964844 63.957031 118.390625 C 63.957031 116.8125 65.179688 115.664062 66.683594 115.664062 L 68.476562 115.664062 C 68.976562 115.664062 69.335938 116.09375 69.335938 116.523438 L 69.335938 120.109375 C 69.335938 120.609375 68.90625 120.96875 68.476562 120.96875 Z M 77.511719 60.160156 L 75.71875 60.160156 C 75.214844 60.160156 74.855469 59.730469 74.855469 59.300781 L 74.855469 55.714844 C 74.855469 55.214844 75.289062 54.855469 75.71875 54.855469 L 77.511719 54.855469 C 79.015625 54.855469 80.234375 56 80.234375 57.578125 C 80.234375 59.15625 79.015625 60.304688 77.511719 60.304688 Z M 68.476562 49.417969 L 66.683594 49.417969 C 65.179688 49.417969 63.957031 48.269531 63.957031 46.691406 C 63.957031 45.113281 65.179688 43.96875 66.683594 43.96875 L 68.476562 43.96875 C 68.976562 43.96875 69.335938 44.398438 69.335938 44.828125 L 69.335938 48.414062 C 69.335938 48.914062 68.90625 49.273438 68.476562 49.273438 Z M 125.835938 60.164062 L 111.496094 60.164062 C 110.992188 60.164062 110.632812 59.734375 110.632812 59.304688 L 110.632812 37.796875 C 110.632812 33.351562 114.21875 29.765625 118.664062 29.765625 C 123.109375 29.765625 126.695312 33.351562 126.695312 37.796875 L 126.695312 59.304688 C 126.695312 59.808594 126.265625 60.164062 125.835938 60.164062 Z M 111.566406 100.753906 C 112.714844 100.539062 113.933594 100.394531 115.152344 100.394531 C 125.046875 100.394531 133.074219 108.425781 133.074219 118.320312 C 133.074219 121.117188 132.429688 123.695312 131.285156 126.0625 C 126.839844 122.191406 121.175781 120.113281 115.152344 120.113281 C 113.933594 120.113281 112.714844 120.183594 111.566406 120.398438 C 109.058594 120.683594 106.621094 121.472656 104.398438 122.550781 C 102.460938 123.410156 100.597656 124.558594 98.949219 125.992188 C 97.871094 123.695312 97.226562 121.042969 97.226562 118.320312 C 97.226562 112.441406 100.023438 107.277344 104.398438 103.980469 C 106.476562 102.402344 108.914062 101.328125 111.566406 100.753906 Z M 111.566406 118.460938 C 112.714844 118.964844 113.859375 119.25 115.152344 119.25 C 120.097656 119.25 124.113281 115.238281 124.113281 110.289062 C 124.113281 105.34375 120.097656 101.328125 115.152344 101.328125 C 113.859375 101.328125 112.714844 101.613281 111.566406 102.117188 C 108.410156 103.476562 106.191406 106.632812 106.191406 110.289062 C 106.191406 113.945312 108.410156 117.101562 111.566406 118.460938 Z M 112.355469 110.214844 C 112.355469 111.578125 113.503906 112.578125 115.082031 112.578125 C 116.65625 112.578125 117.804688 111.578125 117.804688 110.214844 C 117.804688 108.636719 116.585938 107.488281 115.082031 107.488281 C 113.574219 107.488281 112.355469 108.707031 112.355469 110.214844 Z M 29.003906 83.324219 L 29.042969 83.324219 L 28.96875 83.324219 Z M 32.769531 82.964844 C 31.421875 83.179688 30.210938 83.320312 29.003906 83.324219 C 24.429688 83.316406 20.070312 81.667969 16.636719 78.59375 C 16.421875 78.449219 16.351562 78.160156 16.351562 77.945312 C 16.351562 77.730469 16.496094 77.445312 16.636719 77.300781 C 20.007812 74.289062 24.453125 72.640625 29.042969 72.640625 C 30.332031 72.640625 31.625 72.785156 32.84375 73.070312 C 35.421875 73.5 38.078125 74.648438 40.296875 76.371094 C 40.515625 76.511719 40.730469 76.65625 41.015625 76.871094 L 41.300781 77.160156 C 41.300781 77.160156 41.660156 77.660156 41.660156 77.875 C 41.660156 78.089844 41.660156 78.449219 41.445312 78.59375 C 39.007812 80.816406 36.070312 82.320312 32.769531 82.964844 Z M 29.113281 45.726562 C 18.722656 45.726562 10.292969 54.15625 10.292969 64.546875 C 10.292969 67.410156 10.96875 70.191406 12.097656 72.597656 C 12.214844 72.851562 12.445312 73.035156 12.71875 73.09375 C 12.988281 73.152344 13.273438 73.082031 13.488281 72.90625 C 17.839844 69.242188 23.300781 67.234375 29.113281 67.234375 C 30.300781 67.234375 31.460938 67.304688 32.535156 67.507812 L 32.53125 67.507812 L 32.570312 67.511719 C 34.996094 67.859375 37.34375 68.550781 39.476562 69.582031 L 39.476562 69.585938 L 39.492188 69.589844 C 41.425781 70.488281 43.15625 71.59375 44.746094 72.910156 C 44.960938 73.085938 45.242188 73.152344 45.515625 73.09375 C 45.785156 73.03125 46.011719 72.851562 46.128906 72.597656 C 47.257812 70.191406 47.933594 67.410156 47.933594 64.546875 C 47.933594 58.609375 45.230469 53.335938 40.9375 49.945312 C 38.972656 48.285156 36.636719 47.082031 34.082031 46.402344 C 32.496094 45.949219 30.839844 45.726562 29.113281 45.726562 Z M 21.046875 56.445312 C 21.046875 51.992188 24.660156 48.378906 29.113281 48.378906 C 30.527344 48.378906 31.886719 48.765625 33.050781 49.414062 L 33.054688 49.414062 C 35.5 50.765625 37.179688 53.410156 37.179688 56.445312 C 37.179688 59.730469 35.183594 62.570312 32.34375 63.796875 L 32.339844 63.796875 C 31.285156 64.257812 30.261719 64.511719 29.113281 64.511719 C 24.660156 64.511719 21.046875 60.898438 21.046875 56.445312 Z M 26.316406 56.4375 C 26.316406 57.800781 27.464844 58.804688 29.042969 58.804688 C 30.621094 58.804688 31.765625 57.945312 31.765625 56.4375 C 31.765625 54.933594 30.546875 53.714844 29.042969 53.714844 C 27.535156 53.714844 26.316406 55.074219 26.316406 56.4375 Z M 26.316406 56.4375 " fill-opacity="1" fill-rule="evenodd"/></g><g fill="#ffffff" fill-opacity="1"><g transform="translate(154.809168, 145.031437)"><g><path d="M 8.4375 -13.890625 L 10.140625 -13.890625 C 11.816406 -13.890625 13.050781 -14.164062 13.84375 -14.71875 C 14.644531 -15.28125 15.046875 -16.160156 15.046875 -17.359375 C 15.046875 -18.535156 14.640625 -19.375 13.828125 -19.875 C 13.015625 -20.382812 11.753906 -20.640625 10.046875 -20.640625 L 8.4375 -20.640625 Z M 8.4375 -9.578125 L 8.4375 0 L 3.140625 0 L 3.140625 -24.96875 L 10.421875 -24.96875 C 13.816406 -24.96875 16.328125 -24.347656 17.953125 -23.109375 C 19.578125 -21.878906 20.390625 -20.007812 20.390625 -17.5 C 20.390625 -16.019531 19.984375 -14.707031 19.171875 -13.5625 C 18.367188 -12.425781 17.226562 -11.53125 15.75 -10.875 C 19.507812 -5.257812 21.957031 -1.632812 23.09375 0 L 17.21875 0 L 11.25 -9.578125 Z M 8.4375 -9.578125 "/></g></g></g><g fill="#ffffff" fill-opacity="1"><g transform="translate(177.901642, 145.031437)"><g><path d="M 14.859375 0 L 13.859375 -2.59375 L 13.71875 -2.59375 C 12.84375 -1.488281 11.941406 -0.722656 11.015625 -0.296875 C 10.085938 0.128906 8.875 0.34375 7.375 0.34375 C 5.539062 0.34375 4.097656 -0.175781 3.046875 -1.21875 C 1.992188 -2.269531 1.46875 -3.765625 1.46875 -5.703125 C 1.46875 -7.734375 2.175781 -9.226562 3.59375 -10.1875 C 5.007812 -11.15625 7.148438 -11.6875 10.015625 -11.78125 L 13.328125 -11.890625 L 13.328125 -12.71875 C 13.328125 -14.65625 12.335938 -15.625 10.359375 -15.625 C 8.828125 -15.625 7.03125 -15.164062 4.96875 -14.25 L 3.25 -17.765625 C 5.445312 -18.910156 7.882812 -19.484375 10.5625 -19.484375 C 13.125 -19.484375 15.085938 -18.925781 16.453125 -17.8125 C 17.816406 -16.695312 18.5 -15 18.5 -12.71875 L 18.5 0 Z M 13.328125 -8.84375 L 11.3125 -8.78125 C 9.789062 -8.738281 8.660156 -8.460938 7.921875 -7.953125 C 7.179688 -7.453125 6.8125 -6.691406 6.8125 -5.671875 C 6.8125 -4.203125 7.65625 -3.46875 9.34375 -3.46875 C 10.550781 -3.46875 11.515625 -3.8125 12.234375 -4.5 C 12.960938 -5.195312 13.328125 -6.125 13.328125 -7.28125 Z M 13.328125 -8.84375 "/></g></g></g><g fill="#ffffff" fill-opacity="1"><g transform="translate(199.0299, 145.031437)"><g><path d="M 10.484375 0.34375 C 4.546875 0.34375 1.578125 -2.921875 1.578125 -9.453125 C 1.578125 -12.691406 2.382812 -15.164062 4 -16.875 C 5.613281 -18.59375 7.929688 -19.453125 10.953125 -19.453125 C 13.160156 -19.453125 15.140625 -19.019531 16.890625 -18.15625 L 15.359375 -14.125 C 14.535156 -14.457031 13.769531 -14.726562 13.0625 -14.9375 C 12.363281 -15.144531 11.660156 -15.25 10.953125 -15.25 C 8.242188 -15.25 6.890625 -13.328125 6.890625 -9.484375 C 6.890625 -5.742188 8.242188 -3.875 10.953125 -3.875 C 11.953125 -3.875 12.878906 -4.007812 13.734375 -4.28125 C 14.585938 -4.550781 15.441406 -4.96875 16.296875 -5.53125 L 16.296875 -1.078125 C 15.453125 -0.535156 14.597656 -0.164062 13.734375 0.03125 C 12.878906 0.238281 11.796875 0.34375 10.484375 0.34375 Z M 10.484375 0.34375 "/></g></g></g><g fill="#ffffff" fill-opacity="1"><g transform="translate(217.015394, 145.031437)"><g><path d="M 20.359375 0 L 15.15625 0 L 15.15625 -11.15625 C 15.15625 -13.90625 14.128906 -15.28125 12.078125 -15.28125 C 10.617188 -15.28125 9.5625 -14.785156 8.90625 -13.796875 C 8.257812 -12.804688 7.9375 -11.203125 7.9375 -8.984375 L 7.9375 0 L 2.734375 0 L 2.734375 -26.578125 L 7.9375 -26.578125 L 7.9375 -21.171875 C 7.9375 -20.742188 7.898438 -19.75 7.828125 -18.1875 L 7.703125 -16.65625 L 7.984375 -16.65625 C 9.140625 -18.519531 10.984375 -19.453125 13.515625 -19.453125 C 15.753906 -19.453125 17.453125 -18.847656 18.609375 -17.640625 C 19.773438 -16.429688 20.359375 -14.703125 20.359375 -12.453125 Z M 20.359375 0 "/></g></g></g><g fill="#ffffff" fill-opacity="1"><g transform="translate(240.005387, 145.031437)"><g><path d="M 14.859375 0 L 13.859375 -2.59375 L 13.71875 -2.59375 C 12.84375 -1.488281 11.941406 -0.722656 11.015625 -0.296875 C 10.085938 0.128906 8.875 0.34375 7.375 0.34375 C 5.539062 0.34375 4.097656 -0.175781 3.046875 -1.21875 C 1.992188 -2.269531 1.46875 -3.765625 1.46875 -5.703125 C 1.46875 -7.734375 2.175781 -9.226562 3.59375 -10.1875 C 5.007812 -11.15625 7.148438 -11.6875 10.015625 -11.78125 L 13.328125 -11.890625 L 13.328125 -12.71875 C 13.328125 -14.65625 12.335938 -15.625 10.359375 -15.625 C 8.828125 -15.625 7.03125 -15.164062 4.96875 -14.25 L 3.25 -17.765625 C 5.445312 -18.910156 7.882812 -19.484375 10.5625 -19.484375 C 13.125 -19.484375 15.085938 -18.925781 16.453125 -17.8125 C 17.816406 -16.695312 18.5 -15 18.5 -12.71875 L 18.5 0 Z M 13.328125 -8.84375 L 11.3125 -8.78125 C 9.789062 -8.738281 8.660156 -8.460938 7.921875 -7.953125 C 7.179688 -7.453125 6.8125 -6.691406 6.8125 -5.671875 C 6.8125 -4.203125 7.65625 -3.46875 9.34375 -3.46875 C 10.550781 -3.46875 11.515625 -3.8125 12.234375 -4.5 C 12.960938 -5.195312 13.328125 -6.125 13.328125 -7.28125 Z M 13.328125 -8.84375 "/></g></g></g><g fill="#ffffff" fill-opacity="1"><g transform="translate(261.133645, 145.031437)"><g><path d="M 13.75 -20.921875 C 11.757812 -20.921875 10.21875 -20.171875 9.125 -18.671875 C 8.03125 -17.179688 7.484375 -15.097656 7.484375 -12.421875 C 7.484375 -6.847656 9.570312 -4.0625 13.75 -4.0625 C 15.5 -4.0625 17.625 -4.5 20.125 -5.375 L 20.125 -0.9375 C 18.070312 -0.0820312 15.78125 0.34375 13.25 0.34375 C 9.625 0.34375 6.847656 -0.753906 4.921875 -2.953125 C 2.992188 -5.160156 2.03125 -8.328125 2.03125 -12.453125 C 2.03125 -15.046875 2.503906 -17.316406 3.453125 -19.265625 C 4.398438 -21.222656 5.757812 -22.722656 7.53125 -23.765625 C 9.300781 -24.804688 11.375 -25.328125 13.75 -25.328125 C 16.175781 -25.328125 18.613281 -24.742188 21.0625 -23.578125 L 19.359375 -19.265625 C 18.421875 -19.710938 17.476562 -20.097656 16.53125 -20.421875 C 15.59375 -20.753906 14.664062 -20.921875 13.75 -20.921875 Z M 13.75 -20.921875 "/></g></g></g><g fill="#ffffff" fill-opacity="1"><g transform="translate(283.423357, 145.031437)"><g><path d="M 6.890625 -9.578125 C 6.890625 -7.691406 7.195312 -6.265625 7.8125 -5.296875 C 8.4375 -4.328125 9.445312 -3.84375 10.84375 -3.84375 C 12.238281 -3.84375 13.238281 -4.320312 13.84375 -5.28125 C 14.457031 -6.25 14.765625 -7.679688 14.765625 -9.578125 C 14.765625 -11.472656 14.457031 -12.890625 13.84375 -13.828125 C 13.226562 -14.773438 12.21875 -15.25 10.8125 -15.25 C 9.425781 -15.25 8.425781 -14.78125 7.8125 -13.84375 C 7.195312 -12.90625 6.890625 -11.484375 6.890625 -9.578125 Z M 20.09375 -9.578125 C 20.09375 -6.472656 19.269531 -4.039062 17.625 -2.28125 C 15.988281 -0.53125 13.707031 0.34375 10.78125 0.34375 C 8.945312 0.34375 7.328125 -0.0546875 5.921875 -0.859375 C 4.523438 -1.660156 3.453125 -2.8125 2.703125 -4.3125 C 1.953125 -5.820312 1.578125 -7.578125 1.578125 -9.578125 C 1.578125 -12.703125 2.390625 -15.128906 4.015625 -16.859375 C 5.640625 -18.585938 7.925781 -19.453125 10.875 -19.453125 C 12.707031 -19.453125 14.320312 -19.050781 15.71875 -18.25 C 17.125 -17.457031 18.203125 -16.316406 18.953125 -14.828125 C 19.710938 -13.335938 20.09375 -11.585938 20.09375 -9.578125 Z M 20.09375 -9.578125 "/></g></g></g><g fill="#ffffff" fill-opacity="1"><g transform="translate(305.081093, 145.031437)"><g><path d="M 20.359375 0 L 15.15625 0 L 15.15625 -11.15625 C 15.15625 -12.53125 14.910156 -13.5625 14.421875 -14.25 C 13.929688 -14.9375 13.148438 -15.28125 12.078125 -15.28125 C 10.617188 -15.28125 9.5625 -14.796875 8.90625 -13.828125 C 8.257812 -12.859375 7.9375 -11.242188 7.9375 -8.984375 L 7.9375 0 L 2.734375 0 L 2.734375 -19.09375 L 6.71875 -19.09375 L 7.40625 -16.65625 L 7.703125 -16.65625 C 8.285156 -17.570312 9.085938 -18.265625 10.109375 -18.734375 C 11.128906 -19.210938 12.285156 -19.453125 13.578125 -19.453125 C 15.796875 -19.453125 17.476562 -18.851562 18.625 -17.65625 C 19.78125 -16.457031 20.359375 -14.722656 20.359375 -12.453125 Z M 20.359375 0 "/></g></g></g><g fill="#ffffff" fill-opacity="1"><g transform="translate(328.071087, 145.031437)"><g><path d="M 10.78125 -3.8125 C 11.6875 -3.8125 12.78125 -4.007812 14.0625 -4.40625 L 14.0625 -0.53125 C 12.757812 0.0507812 11.164062 0.34375 9.28125 0.34375 C 7.195312 0.34375 5.675781 -0.179688 4.71875 -1.234375 C 3.769531 -2.285156 3.296875 -3.867188 3.296875 -5.984375 L 3.296875 -15.1875 L 0.796875 -15.1875 L 0.796875 -17.390625 L 3.671875 -19.125 L 5.171875 -23.15625 L 8.5 -23.15625 L 8.5 -19.09375 L 13.859375 -19.09375 L 13.859375 -15.1875 L 8.5 -15.1875 L 8.5 -5.984375 C 8.5 -5.242188 8.707031 -4.695312 9.125 -4.34375 C 9.539062 -3.988281 10.09375 -3.8125 10.78125 -3.8125 Z M 10.78125 -3.8125 "/></g></g></g><g fill="#ffffff" fill-opacity="1"><g transform="translate(343.255423, 145.031437)"><g><path d="M 14.859375 0 L 13.859375 -2.59375 L 13.71875 -2.59375 C 12.84375 -1.488281 11.941406 -0.722656 11.015625 -0.296875 C 10.085938 0.128906 8.875 0.34375 7.375 0.34375 C 5.539062 0.34375 4.097656 -0.175781 3.046875 -1.21875 C 1.992188 -2.269531 1.46875 -3.765625 1.46875 -5.703125 C 1.46875 -7.734375 2.175781 -9.226562 3.59375 -10.1875 C 5.007812 -11.15625 7.148438 -11.6875 10.015625 -11.78125 L 13.328125 -11.890625 L 13.328125 -12.71875 C 13.328125 -14.65625 12.335938 -15.625 10.359375 -15.625 C 8.828125 -15.625 7.03125 -15.164062 4.96875 -14.25 L 3.25 -17.765625 C 5.445312 -18.910156 7.882812 -19.484375 10.5625 -19.484375 C 13.125 -19.484375 15.085938 -18.925781 16.453125 -17.8125 C 17.816406 -16.695312 18.5 -15 18.5 -12.71875 L 18.5 0 Z M 13.328125 -8.84375 L 11.3125 -8.78125 C 9.789062 -8.738281 8.660156 -8.460938 7.921875 -7.953125 C 7.179688 -7.453125 6.8125 -6.691406 6.8125 -5.671875 C 6.8125 -4.203125 7.65625 -3.46875 9.34375 -3.46875 C 10.550781 -3.46875 11.515625 -3.8125 12.234375 -4.5 C 12.960938 -5.195312 13.328125 -6.125 13.328125 -7.28125 Z M 13.328125 -8.84375 "/></g></g></g><g clip-path="url(#440b8d78d6)"><path stroke-linecap="butt" transform="matrix(0.952427, 0.00688556, -0.00688556, 0.952427, 100.908609, 151.555202)" fill="none" stroke-linejoin="miter" d="M -0.000315695 2.000929 L 276.653227 1.99823 " stroke="#ffffff" stroke-width="4" stroke-opacity="1" stroke-miterlimit="4"/></g></svg>